                        <svg width="100%"  viewBox="0 0 510 812" fill="none" xmlns="http://www.w3.org/2000/svg">
                            <g id="contact-image">
                            <g id="Minimalist-avatar">
                            <g id="Shadow" style="mix-blend-mode:multiply" opacity="0.5">
                            <ellipse cx="172.754" cy="757" rx="172.5" ry="55" fill="#5A5A5A"/>
                            </g>
                            <g id="Legs">
                            <path id="Pants" d="M96.8385 486H253.754C255.213 596.589 254.541 643.172 257.254 715.809C235.721 725.499 224.099 727.135 204.26 722.551C194.411 602.424 187.835 571.996 175.137 551.74C160.658 591.385 155.198 619.402 144.754 715.809C130.658 723.802 121.48 726.075 96.8385 715.809C96.1526 620.92 95.971 569.241 96.8385 486Z" fill="#9FBCF5"/>
                            <g id="Left shoe">
                            <path id="Ellipse 18" d="M147.598 739.653C147.598 755.117 128.428 758.153 109.098 758.153C83.783 755.132 73.2852 748.976 78.5975 736.193C87.1252 711.366 103.78 698.902 117.098 710.192C146.739 702.19 152.468 704.189 147.598 739.653Z" fill="#393737"/>
                            <path id="Rectangle 10" d="M77.254 747.044L146.754 745.5L144.188 751.914L141.123 756.784C122.088 759.388 103.939 760.197 81.8526 756.436L79.2978 751.566L77.254 747.044Z" fill="#E6E6E6"/>
                            <path id="Vector 1" d="M107.207 712.587L131.242 715.87L107.207 721.341L126.045 724.623L107.207 726.447L121.498 729H107.207L121.498 726.447L107.207 724.623L126.045 721.341L107.207 716.964L131.242 712.587M107.207 712.587C93.2297 712.356 96.6705 705.565 101.361 706.022C106.052 706.479 131.242 712.587 131.242 712.587M107.207 712.587C113.528 708.449 124.176 706.534 130.592 706.387C137.008 706.239 138.942 711.464 131.242 712.587" stroke="#F9F9F9" stroke-width="2"/>
                            </g>
                            <g id="Right shoe">
                            <path id="Ellipse 18_2" d="M205.16 742.656C207.074 758.239 229.075 758.643 250.882 755.965C279.066 749.415 290.147 741.757 282.573 729.611C269.881 705.774 249.55 695.522 235.923 708.744C201.494 704.786 195.278 707.593 205.16 742.656Z" fill="#393737"/>
                            <path id="Rectangle 10_2" d="M285.431 740.36L206.835 748.431L210.523 754.539L214.584 759.022C236.379 759.009 256.955 757.311 281.405 750.462L283.685 745.2L285.431 740.36Z" fill="#E8E8E8"/>
                            <path id="Vector 1_2" d="M247.376 709.787L220.669 716.424L248.46 718.608L227.614 724.525L249.091 723.753L233.286 728.306L249.407 726.326L232.97 725.733L248.866 721.916L227.208 721.217L247.918 714.197L220.263 713.116M247.376 709.787C263.117 707.618 258.395 701.251 253.159 702.361C247.924 703.471 220.263 713.116 220.263 713.116M247.376 709.787C239.734 706.493 227.484 706.038 220.229 706.778C212.973 707.518 211.437 713.051 220.263 713.116" stroke="#F9F9F9" stroke-width="2"/>
                            </g>
                            </g>
                            <g id="Body">
                            <rect id="Neck" x="137.254" y="213" width="74" height="61" fill="#E9D2D2"/>
                            <g id="Left arm">
                            <path id="Ellipse 15" d="M87.2189 311.491C86.9962 339.994 43.9314 436.085 23.254 426C1.66424 421.974 4.74101 379.953 15.8971 358.45C20.6244 336.21 71.5992 262.166 87.4455 265.534C103.292 268.902 91.9461 289.251 87.2189 311.491Z" fill="#C34444"/>
                            <path id="Ellipse 16" d="M52.7526 398.755C60.3926 405.779 103.273 455.264 118.502 505.629C101.526 514.279 90.5474 528.524 83.2762 514.253C76.005 499.982 -4.23369 416.091 12.7424 407.441C29.7185 398.792 45.4814 384.485 52.7526 398.755Z" fill="#C34444"/>
                            <path id="Rectangle 9" d="M91.9543 513.357L113.754 496.5C122.729 504.036 126.987 506.939 133.509 517.504L97.754 538C94.8353 528.539 92.7673 523.903 91.9543 513.357Z" fill="#FFE3E3"/>
                            <path id="Ellipse 17" d="M146.485 515.275C146.485 518.036 138.65 511.775 128.985 511.775C119.32 511.775 111.485 507.536 111.485 504.775C107.156 500.086 114.545 497.649 128.985 499.775C147.166 502.112 154.814 514.8 146.485 515.275Z" fill="#FFE3E3"/>
                            </g>
                            <g id="Right arm">
                            <path id="Ellipse 18_3" d="M257.959 316.008C258.182 344.511 301.247 440.602 321.924 430.517C343.514 426.491 340.437 384.47 329.281 362.967C324.554 340.727 273.579 266.683 257.732 270.051C241.886 273.419 253.232 293.768 257.959 316.008Z" fill="#C34444"/>
                            <path id="Ellipse 19" d="M335.843 421.107C342.887 418.432 382.903 395.816 398.688 363.021C384.2 350.647 375.246 336.112 368.178 344.387C361.111 352.662 286.649 388.406 301.136 400.78C315.624 413.154 328.776 429.382 335.843 421.107Z" fill="#C34444"/>
                            <path id="Ellipse 21" d="M441.254 338.743C441.254 344.925 438.478 350.985 431.737 350.985C424.995 350.985 417.254 351.57 417.254 345.389C417.254 339.207 422.719 334.196 429.461 334.196C436.203 334.196 441.254 332.561 441.254 338.743Z" fill="#E9D2D2"/>
                            <path id="Ellipse 20" d="M432.254 342.091C432.254 352.636 424.968 362.975 407.271 362.975C389.574 362.975 369.254 363.973 369.254 353.428C369.254 342.882 383.6 334.334 401.297 334.334C418.994 334.334 432.254 331.545 432.254 342.091Z" fill="#FFE3E3"/>
                            </g>
                            <path id="Jersey" d="M75.4868 271C90.8679 263.785 101.694 262.448 122.579 262L170.754 271L205.951 264C232.816 263.863 246.826 264.601 265.254 271C263.921 334.4 261.345 437.525 254.064 486H94.6034C86.3682 426.511 69.5814 324.903 75.4868 271Z" fill="#C34444"/>
                            <g id="Shirt left">
                            <path id="Rectangle 7" d="M128.254 244H149.254L158.754 267.5L137.254 264L114.754 255L128.254 244Z" fill="#BAB8B8"/>
                            <path id="Rectangle 6" d="M128.254 244H149.254L134.754 273.5L114.754 255L128.254 244Z" fill="white"/>
                            </g>
                            <g id="Shirt right">
                            <path id="Rectangle 7_2" d="M219.754 244H198.754L189.254 267.5L210.754 264L233.254 255L219.754 244Z" fill="#BAB8B8"/>
                            <path id="Rectangle 6_2" d="M219.754 244H198.754L213.254 273.5L233.254 255L219.754 244Z" fill="white"/>
                            </g>
                            </g>
                            <g id="Head">
                            <g id="Face">
                            <path id="Forehead" d="M74.289 107.344C74.289 163.004 115.949 208.125 173.004 208.125C230.059 208.125 273.441 163.004 273.441 107.344C273.441 51.6838 229.485 24.375 172.43 24.375C115.376 24.375 74.289 51.6838 74.289 107.344Z" fill="#FFE3E3"/>
                            <path id="Jaws" d="M89.7849 199.688C89.8059 203.45 128.812 231.094 172.43 243.281C202.771 235.477 241.381 223.941 260.815 202.5C260.815 172.987 210.656 160.313 161.526 160.313C112.395 160.313 89.7849 170.175 89.7849 199.688Z" fill="#FFE3E3"/>
                            <path id="Cheeks" d="M74.289 156.563L89.7849 199.688L260.815 202.5L272.867 156.563H74.289Z" fill="#FFE3E3"/>
                            <ellipse id="Right ear" cx="268.276" cy="163.594" rx="11.4785" ry="20.1562" fill="#FFE3E3"/>
                            <ellipse id="Left ear" rx="11.4785" ry="20.1562" transform="matrix(-1 0 0 1 77.7325 163.594)" fill="#FFE3E3"/>
                            </g>
                            <g id="Nose">
                            <path id="Polygon 2" d="M173.526 121.875L192.413 180.938H154.638L173.526 121.875Z" fill="#E9D2D2"/>
                            <path id="Polygon 3" d="M173.526 121.875V180.938H154.638L173.526 121.875Z" fill="#FFD7D7"/>
                            </g>
                            <g id="Right_eye">
                            <g id="RightPupil">
                            <path id="Right_pupil" d="M240.153 127.5C240.153 143.551 234.243 156.563 226.953 156.563C219.663 156.563 213.753 143.551 213.753 127.5C213.753 111.449 219.663 98.4375 226.953 98.4375C234.243 98.4375 240.153 111.449 240.153 127.5Z" fill="#393939"/>
                            </g>
                            <path id="Right_eyebrow" d="M252.858 94.8254C253.493 97.6254 244.317 83.6648 230.604 85.7406C216.891 87.8164 205.867 97.6254 205.232 94.8254C204.596 92.0253 214.59 77.6766 228.303 75.6008C242.016 73.525 252.222 92.0254 252.858 94.8254Z" fill="#393939"/>
                            </g>
                            <g id="Left_eye">
                            <g id="LeftPupil">
                            <path id="Left_pupil" d="M135.779 127.958C135.779 144.009 129.869 157.021 122.578 157.021C115.288 157.021 109.378 144.009 109.378 127.958C109.378 111.907 115.288 98.8957 122.578 98.8957C129.869 98.8957 135.779 111.907 135.779 127.958Z" fill="#393939"/>
                            </g>
                            <path id="Left_eyebrow" d="M97.8997 94.3673C97.2643 97.1673 106.441 83.2066 120.154 85.2825C133.867 87.3583 144.891 97.1673 145.526 94.3673C146.161 91.5672 136.168 77.2185 122.455 75.1427C108.742 73.0668 98.5351 91.5672 97.8997 94.3673Z" fill="#393939"/>
                            
                            </g>
                            <g id="Hair">
                            <path id="Ellipse 10" d="M84.0112 111.364C84.0112 131.386 84.702 156.562 79.8966 156.562C75.0911 156.562 70.2715 90.3343 70.2715 70.3125C70.2715 50.2907 75.0911 49.6875 79.8966 49.6875C84.702 49.6875 84.0112 91.3424 84.0112 111.364Z" fill="#393939"/>
                            <path id="Ellipse 14" d="M263.142 114.536C263.142 133.153 262.509 156.562 266.914 156.562C271.319 156.562 275.737 94.9819 275.737 76.3651C275.737 57.7483 271.319 57.1875 266.914 57.1875C262.509 57.1875 263.142 95.9193 263.142 114.536Z" fill="#393939"/>
                                <g id="TopHair">
                                <path id="top-hair" d="M123.646 0C128.578 9.28706 130.845 14.239 139.716 19.6875C148.516 17.8555 155.203 15.9224 159.23 9.375C166.077 2.09015 169.996 0.877872 177.021 0C177.721 11.613 178.12 11.5699 189.648 19.6875C197.124 5.25179 212.272 7.67721 235.562 2.8125C225.966 26.1789 227.906 17.0515 228.101 24.375L272.293 5.625C282.624 34.6875 265.194 53.0004 269.997 72.1875C254.278 60.6112 170.389 71.0006 74.8629 67.5C78.3126 35.467 92.6917 22.0323 123.646 0Z" fill="#393939"/>
                                </g>
                            </g>
                            <g id="Mouth_smile">
                            <path id="Rectangle 2" d="M137.254 195H207.273C207.273 214.219 205.513 218.682 177.429 220.781C155.516 219.075 144.546 214.78 137.254 195Z" fill="#7D5C5C"/>
                            <ellipse id="Ellipse 13" cx="178.003" cy="214.219" rx="24.6788" ry="6.09375" fill="#DF4444"/>
                            <path id="Rectangle 5" d="M137.254 195H207.273C207.183 198.576 207.833 200.616 206.699 203.906L141.272 203.438C139.445 200.727 138.609 198.781 137.254 195Z" fill="white"/>
                            </g>
                            </g>
                            </g>
                            <path id="Telekinesis" d="M502.254 230C502.254 263.689 457.035 291 401.254 291C345.473 291 300.254 263.689 300.254 230C300.254 196.311 345.473 169 401.254 169C464.229 157.463 505.881 190.495 502.254 230Z" fill="#90EAA4"/>
                            <g id="Letter">
                            <rect id="Rectangle 11" x="328.567" y="195.266" width="144.375" height="68.7344" fill="white"/>
                            <path id="Polygon 4" d="M400.754 238.062L472.201 195.266H329.307L400.754 238.062Z" fill="#C4C4C4"/>
                            <ellipse id="Ellipse 22" cx="399.817" cy="235.036" rx="8.4375" ry="8.21354" fill="#9D4242"/>
                            <path id="F" d="M403.212 235.35H398.132V239.359H396.535V230.281H404.035V231.266H398.132V234.371H403.212V235.35Z" fill="white"/>
                            </g>
                            </g>
                            </svg>