<svg width="100%" viewBox="0 0 1331 1456" fill="none" xmlns="http://www.w3.org/2000/svg">
<mask id="mask0" mask-type="alpha" maskUnits="userSpaceOnUse" x="0" y="58" width="1331" height="1399">
<path d="M597.355 58.1207H747.863L1330.5 1348.19C868.698 1478.12 497.771 1505.12 0 1348.19L597.355 58.1207Z" fill="#B9B9B9"/>
</mask>
<g mask="url(#mask0)">
<rect x="-0.735504" y="81.9652" width="1412.14" height="1566.28" fill="#7378E7"/>
<g filter="url(#filter0_d)">
<g filter="url(#filter1_d)">
<rect x="489.1" y="906.088" width="108.852" height="90.9069" fill="#E9D2D2"/>
<path d="M657.111 1063.02C669.794 1110.26 799.45 1194.43 827.542 1155.52C856.272 1130.7 802.287 1089.13 771.528 1070.99C749.637 1046.06 646.58 984.119 625.772 1002.88C604.964 1021.63 635.22 1038.09 657.111 1063.02Z" fill="#121A2E"/>
<path d="M857.712 1195.36C868.073 1191.37 926.936 1157.67 950.155 1108.8C928.844 1090.36 915.672 1068.7 905.276 1081.03C894.88 1093.36 785.348 1146.63 806.659 1165.07C827.97 1183.51 847.316 1207.69 857.712 1195.36Z" fill="#121A2E"/>
<path d="M1011.3 1074.11C1011.3 1083.32 1007.22 1092.35 997.298 1092.35C987.381 1092.35 975.994 1093.22 975.994 1084.01C975.994 1074.8 984.034 1067.33 993.95 1067.33C1003.87 1067.33 1011.3 1064.89 1011.3 1074.11Z" fill="#E9D2D2"/>
<path d="M1029.69 1069.27C1029.69 1079.15 1011.62 1092.37 1002.28 1092.37C992.933 1092.37 1016.98 1079.15 1016.98 1069.27C1016.98 1059.4 990.726 1053.63 1000.07 1053.63C1009.41 1053.63 1029.69 1059.4 1029.69 1069.27Z" fill="#9E3A3A"/>
<rect x="918.626" y="1022.33" width="88.2587" height="101.339" fill="#9E3A3A"/>
<path d="M998.059 1075.77C998.059 1087.15 985.845 1096.84 959.814 1096.84C930.633 1100.48 902.023 1103.27 905.387 1088C905.387 1076.62 926.49 1067.4 952.522 1067.4C978.554 1067.4 998.059 1064.39 998.059 1075.77Z" fill="#FFE3E3"/>
<path d="M441.357 979.184C459.551 970.156 471.83 969.353 495.216 970.964L547.746 989.563L588.039 983.013C618.06 985.737 629.025 990.711 648.702 1002.21C638.275 1096.11 625.436 1246.46 610.47 1317.57L432.393 1300.2C431.583 1211.06 427.162 1058.5 441.357 979.184Z" fill="#151F39"/>
<path d="M449.384 1079.71C414.658 1044.01 394.683 1047.75 405.844 1000.38C411.628 968.184 473.458 972.496 505.16 988.982C563.368 998.956 668.237 1073.91 642.295 1095C637.442 1118.64 482.129 1086.61 449.384 1079.71Z" fill="#121A2E"/>
<path d="M609.465 1034.62C624.315 1031.04 719.933 1019.3 793.88 1042.45C790.465 1070.63 798.806 1096.07 775.422 1093.16C752.038 1090.25 583.731 1119.48 587.147 1091.29C590.562 1063.11 586.081 1031.71 609.465 1034.62Z" fill="#121A2E"/>
<path d="M906.765 1079.03C900.564 1085.77 889.452 1087.62 877.231 1076.08C865.009 1064.53 838.14 1048.44 844.342 1041.7C850.543 1034.97 877.727 1042.33 889.948 1053.88C902.17 1065.43 912.967 1072.3 906.765 1079.03Z" fill="#FFE3E3"/>
<path d="M883.891 1097.54C877.689 1104.28 866.501 1106.06 854.094 1094.34C841.687 1082.62 826.853 1069.8 833.055 1063.06C839.256 1056.32 854.342 1060.36 866.749 1072.08C879.156 1083.8 890.093 1090.81 883.891 1097.54Z" fill="#FFE3E3"/>
<path d="M903.524 1090.17C897.322 1096.91 885.395 1097.99 871.191 1084.57C856.988 1071.15 840.092 1056.38 846.294 1049.65C852.495 1042.91 869.037 1048.32 883.24 1061.74C897.443 1075.16 909.725 1083.43 903.524 1090.17Z" fill="#FFE3E3"/>
<path d="M864.2 1051.37C864.2 1069.79 853.483 1087.86 827.451 1087.86C801.419 1087.86 771.528 1089.6 771.528 1071.18C771.528 1052.75 792.631 1037.82 818.663 1037.82C844.695 1037.82 864.2 1032.94 864.2 1051.37Z" fill="#FFE3E3"/>
<path d="M377.357 776.946C377.357 859.895 438.639 927.138 522.565 927.138C606.491 927.138 670.305 859.895 670.305 776.946C670.305 693.998 605.647 653.3 521.721 653.3C437.795 653.3 377.357 693.998 377.357 776.946Z" fill="#FFE3E3"/>
<path d="M431.732 914.12C444.607 929.176 521.283 949.883 561.178 956.012C600.322 944.377 627.307 950.278 652.379 918.313C652.379 874.315 587.669 855.419 524.285 855.419C460.902 855.419 431.732 870.122 431.732 914.12Z" fill="#FFE3E3"/>
<path d="M400.842 850.948L431.732 915.03L652.379 921.736L670.031 850.948H400.842Z" fill="#FFE3E3"/>
<ellipse cx="662.707" cy="860.774" rx="16.8846" ry="30.0384" fill="#FFE3E3"/>
<path d="M670.145 757.328C671.08 761.501 657.582 740.696 637.41 743.789C617.238 746.883 601.022 761.501 600.088 757.328C599.153 753.155 613.854 731.772 634.025 728.678C654.197 725.585 669.211 753.155 670.145 757.328Z" fill="#393939"/>
<ellipse rx="16.8846" ry="30.0384" transform="matrix(-1 0 0 1 464.798 821.375)" fill="#FFE3E3"/>
<path d="M594.845 806.24L622.628 894.259H567.062L594.845 806.24Z" fill="#E9D2D2"/>
<path d="M594.845 806.24V894.259H567.062L594.845 806.24Z" fill="#FFD7D7"/>
<path d="M647.084 807.823C647.084 831.743 638.391 851.134 627.667 851.134C616.943 851.134 608.25 831.743 608.25 807.823C608.25 783.903 616.943 764.512 627.667 764.512C638.391 764.512 647.084 783.903 647.084 807.823Z" fill="#393939"/>
<path d="M554.776 804.407C554.776 828.327 546.082 847.719 535.359 847.719C524.635 847.719 515.941 828.327 515.941 804.407C515.941 780.487 524.635 761.096 535.359 761.096C546.082 761.096 554.776 780.487 554.776 804.407Z" fill="#393939"/>
<path d="M496.959 737.862C496.024 742.035 514.788 749.879 534.96 752.973C555.132 756.066 571.347 770.685 572.282 766.512C573.217 762.339 558.516 740.955 538.345 737.862C518.173 734.768 497.894 733.689 496.959 737.862Z" fill="#393939"/>
<path d="M456.426 787.982C456.426 817.855 462.697 888.95 419.076 888.95C386.07 904.659 343.631 796.668 331.706 726.732C331.706 696.859 375.455 695.959 419.076 695.959C462.697 695.959 456.426 758.109 456.426 787.982Z" fill="#393939"/>
<path d="M655.156 787.665C655.156 815.409 654.224 850.296 660.704 850.296C667.184 850.296 673.682 758.524 673.682 730.78C673.682 703.036 667.184 702.2 660.704 702.2C654.224 702.2 655.156 759.921 655.156 787.665Z" fill="#393939"/>
<path d="M470.713 613.994C477.967 627.834 455.457 641.641 468.507 649.761C481.45 647.03 496.38 640.703 502.304 630.946C512.376 620.089 533.927 615.302 544.262 613.994C545.29 631.3 524.363 641.202 541.32 653.3C552.318 631.787 580.328 628.416 614.586 621.166C600.471 655.988 603.324 642.386 603.611 653.3L668.617 625.357C683.813 668.668 658.175 695.96 665.24 724.554C642.118 707.302 518.718 722.785 378.202 717.568C383.276 669.83 425.179 646.828 470.713 613.994Z" fill="#393939"/>
<ellipse cx="414.081" cy="862.125" rx="20.5937" ry="39.4923" fill="#FFE3E3"/>
<rect x="559.707" y="910.559" width="63.2521" height="8.94166" fill="#655757"/>
<path d="M938.49 1340.29C937.878 1375.82 862.119 1461.73 743.911 1459.64C625.704 1457.55 545.307 1427.32 545.919 1391.79C536.295 1372.38 539.906 1355.44 540.62 1314.03C677.687 1323.11 973.963 1317.69 938.49 1340.29Z" fill="#2D2A2A"/>
<path d="M609.721 1319.64C609.721 1355.44 576.804 1443.33 524.404 1443.33C472.004 1443.33 436.145 1414.31 436.145 1378.51C431.732 1359.13 433.203 1341.99 433.203 1300.27C494.014 1306.98 625.268 1296.24 609.721 1319.64Z" fill="#393737"/>
<path d="M854.435 1334.32C853.883 1366.32 778.273 1443.57 660.065 1441.48C541.858 1439.39 459.865 1423.92 460.416 1391.92C450.76 1374.42 455.889 1347.26 456.531 1309.96C593.609 1318.39 889.867 1314.03 854.435 1334.32Z" fill="#393737"/>
</g>
<path d="M1061.31 1108.02C1061.36 1119.71 1002.09 1125.94 928.923 1120.69C827.057 1123.4 790.558 1114.76 796.535 1108.02C796.535 1101.85 855.807 1096.84 928.923 1096.84C1015.18 1091.79 1083.49 1093.31 1061.31 1108.02Z" fill="#C4C4C4"/>
<path d="M1095.14 848.426L1117.94 836.79C1120.03 835.684 1122.59 835.761 1121.62 841.261L1085.58 1091.63C1085.28 1095.65 1084.33 1097.62 1081.17 1100.57L1059.1 1110.26L1095.14 848.426Z" fill="#615E5E"/>
<path d="M1057.58 1111.73C1062.84 1112.53 1068.16 1050.9 1078.96 977.638C1089.77 904.377 1101.97 847.222 1096.72 846.427C1091.47 845.631 1078.45 904.377 1067.64 977.638C1056.83 1050.9 1052.33 1110.93 1057.58 1111.73Z" fill="#C4C4C4"/>
<rect x="678.857" y="1120.69" width="533.965" height="482.85" fill="#5A4417"/>
<rect x="361.125" y="973.151" width="39.7164" height="482.85" fill="#5A4417"/>
<rect x="391.5" y="1456" width="30" height="201" transform="rotate(-90 391.5 1456)" fill="#5A4417"/>
</g>
</g>
<rect x="664.147" width="14.7098" height="58.1208" fill="#595656"/>
<ellipse cx="672.237" cy="146.047" rx="38.9809" ry="29.8055" fill="#FFF7AE"/>
<path d="M602.366 44.7083H735.489L815.658 146.792H528.817L602.366 44.7083Z" fill="#C4C4C4"/>
<defs>
<filter id="filter0_d" x="331.706" y="613.994" width="890.116" height="997.544" filterUnits="userSpaceOnUse" color-interpolation-filters="sRGB">
<feFlood flood-opacity="0" result="BackgroundImageFix"/>
<feColorMatrix in="SourceAlpha" type="matrix" values="0 0 0 0 0 0 0 0 0 0 0 0 0 0 0 0 0 0 127 0"/>
<feOffset dx="5" dy="4"/>
<feGaussianBlur stdDeviation="2"/>
<feColorMatrix type="matrix" values="0 0 0 0 0 0 0 0 0 0 0 0 0 0 0 0 0 0 0.25 0"/>
<feBlend mode="normal" in2="BackgroundImageFix" result="effect1_dropShadow"/>
<feBlend mode="normal" in="SourceGraphic" in2="effect1_dropShadow" result="shape"/>
</filter>
<filter id="filter1_d" x="327.706" y="613.994" width="705.979" height="859.685" filterUnits="userSpaceOnUse" color-interpolation-filters="sRGB">
<feFlood flood-opacity="0" result="BackgroundImageFix"/>
<feColorMatrix in="SourceAlpha" type="matrix" values="0 0 0 0 0 0 0 0 0 0 0 0 0 0 0 0 0 0 127 0"/>
<feOffset dy="10"/>
<feGaussianBlur stdDeviation="2"/>
<feColorMatrix type="matrix" values="0 0 0 0 0 0 0 0 0 0 0 0 0 0 0 0 0 0 0.25 0"/>
<feBlend mode="normal" in2="BackgroundImageFix" result="effect1_dropShadow"/>
<feBlend mode="normal" in="SourceGraphic" in2="effect1_dropShadow" result="shape"/>
</filter>
</defs>
</svg>
