<svg height="100%" viewBox="0 0 738 980" fill="none" xmlns="http://www.w3.org/2000/svg">
<g opacity="1" filter="url(#filter0_d)">
<path d="M425.699 548.704C414.153 565.527 350.895 581.883 295.316 542.178C239.737 502.473 211.063 461.664 222.609 444.84C224.176 432.393 231.263 425.454 244.72 405.847C307.056 455.079 449.735 549.49 425.699 548.704Z" fill="#2D2A2A"/>
<path d="M388.174 659.575C388.174 731.064 446.604 884.899 388.174 884.899C357.099 996.365 204.034 842.934 176.577 659.575C176.577 588.086 223.945 530.133 282.375 530.133C340.806 530.133 388.174 588.086 388.174 659.575Z" fill="#3B522E"/>
<path d="M602.211 420.143C603.189 419.977 569.395 473.984 553.476 463.418C537.556 452.852 461.338 439.53 464.312 429.732C467.287 419.935 509.592 424.19 558.803 439.237C573.341 440.648 570.756 396.802 602.211 420.143Z" fill="#569232"/>
<path d="M599.996 439.839L592.603 433.474L590.401 438.287L599.996 439.839Z" fill="#C4C4C4"/>
<path d="M602.839 431.944L595.445 425.579L593.244 430.392L602.839 431.944Z" fill="#C4C4C4"/>
<path d="M607.419 425.143L600.025 418.778L597.824 423.591L607.419 425.143Z" fill="#C4C4C4"/>
<path d="M532.625 322.766C552.159 397.055 477.165 745.369 223.414 723.966C23.4996 723.966 -117 617.546 -117 559.644C-117 501.742 45.0629 454.803 244.978 454.803C334.987 468.449 376.774 356.863 392.111 303.375C429.883 278.79 488.99 306.701 532.625 322.766Z" fill="#64A83A"/>
<path d="M622.491 476.355C623.469 476.188 589.675 530.196 573.756 519.63C557.836 509.064 481.618 495.741 484.592 485.944C487.567 476.146 529.872 480.402 579.083 495.448C593.621 496.859 591.036 453.014 622.491 476.355Z" fill="#88CD5D"/>
<path d="M620.276 496.051L612.883 489.686L610.681 494.499L620.276 496.051Z" fill="#C4C4C4"/>
<path d="M623.119 488.156L615.725 481.79L613.524 486.603L623.119 488.156Z" fill="#C4C4C4"/>
<path d="M627.699 481.355L620.305 474.989L618.104 479.802L627.699 481.355Z" fill="#C4C4C4"/>
<path d="M695.741 228.155L684.23 214.903L695.925 210.449L695.741 228.155Z" fill="#C4C4C4"/>
<path d="M676.852 234.035L665.34 220.783L677.035 216.328L676.852 234.035Z" fill="#C4C4C4"/>
<path d="M659.763 243.059L648.251 229.807L659.946 225.352L659.763 243.059Z" fill="#C4C4C4"/>
<path d="M586.239 251.928C774.791 194.908 801.563 218.198 425.693 362.639C378.099 333.545 387.761 304.288 403.79 192.751C419.819 81.2138 491.669 104.855 645.755 134.792C770.507 165.669 720.926 195.733 703.582 212.739C665.171 220.921 627.531 246.976 586.239 251.928Z" fill="#64A83A"/>
<path d="M722.75 174.074C725.399 177.695 726.336 181.553 724.841 182.691C723.347 183.829 719.987 181.816 717.338 178.195C714.688 174.574 713.752 170.716 715.247 169.577C716.741 168.439 720.1 170.452 722.75 174.074Z" fill="#393939"/>
<path d="M709.325 189.533C712.291 192.889 713.572 196.643 712.187 197.917C710.802 199.191 707.275 197.503 704.309 194.146C701.343 190.79 700.062 187.036 701.447 185.762C702.832 184.488 706.359 186.176 709.325 189.533Z" fill="#393939"/>
<path d="M567.583 180.925C567.583 194.75 562.594 205.957 556.439 205.957C550.285 205.957 545.296 194.75 545.296 180.925C545.296 167.101 550.285 155.894 556.439 155.894C562.594 155.894 567.583 167.101 567.583 180.925Z" fill="#393939"/>
<path d="M528.122 154.613C528.5 157.056 540.148 157.198 551.551 154.485C562.953 151.772 574.664 156.103 574.287 153.66C572.49 142.02 561.587 142.925 550.185 145.639C538.782 148.352 527.745 152.17 528.122 154.613Z" fill="#393939"/>
<path d="M268.4 406.099C268.4 426.791 249.509 477.586 219.437 477.586C189.365 477.586 168.786 460.812 168.786 440.12C166.253 428.923 167.097 419.019 167.097 394.902C201.997 398.781 277.323 392.577 268.4 406.099Z" fill="#393737"/>
<path d="M386.018 542.07C374.762 559.754 326.23 577.691 266.117 537.862C206.003 498.033 169.114 462.58 180.369 444.896C181.398 431.973 193.35 418.489 206.468 397.879C271.664 444.622 390.903 519.248 386.018 542.07Z" fill="#393737"/>
<path d="M261.476 712.695C248.517 704.802 230.146 678.598 269.316 615.971C308.486 553.345 341.411 513.234 354.371 521.127C364.682 520.124 368.711 527.441 383.814 536.64C408.695 549.042 258.323 736.434 261.476 712.695Z" fill="#393737"/>
<rect x="199.177" y="167.091" width="62.4703" height="52.5388" fill="#E9D2D2"/>
<path d="M294.598 237.242C318.764 239.118 372.47 184.989 356.4 162.755C347.229 142.771 321.706 164.11 309.849 177.287C295.586 184.456 255.302 228.393 262.324 243.01C269.347 257.628 280.336 244.412 294.598 237.242Z" fill="#C0C0C0"/>
<path d="M367.801 174.64C372.879 170.756 399.972 142.548 405.013 111.661C390.342 104.855 379.645 94.9473 375.872 103.472C372.099 111.997 320.185 159.239 334.857 166.045C349.528 172.851 364.028 183.165 367.801 174.64Z" fill="#C0C0C0"/>
<path d="M171.777 209.336C182.218 204.118 189.265 203.654 202.686 204.585L232.833 215.334L255.958 211.549C273.187 213.123 277.307 213.839 288.6 220.485C300.189 220.485 277.419 363.804 268.831 404.905L166.632 394.865C166.168 343.345 163.63 255.176 171.777 209.336Z" fill="white"/>
<path d="M176.383 267.431C156.454 246.8 144.991 248.963 151.396 221.588C154.715 202.978 190.199 205.47 208.393 214.998C241.799 220.762 301.983 264.083 287.095 276.272C284.31 289.933 195.176 271.419 176.383 267.431Z" fill="#E8E8E8"/>
<path d="M268.254 241.376C276.776 239.303 331.651 232.518 374.09 245.901C372.129 262.189 376.916 276.889 363.496 275.207C350.076 273.526 253.485 290.416 255.445 274.128C257.405 257.84 254.834 239.694 268.254 241.376Z" fill="#E8E8E8"/>
<path d="M438.846 267.081C435.291 270.979 428.922 272.05 421.915 265.369C414.909 258.688 399.505 249.377 403.06 245.479C406.615 241.58 422.198 245.845 429.205 252.527C436.211 259.208 442.401 263.183 438.846 267.081Z" fill="#FFE3E3"/>
<path d="M425.747 277.74C422.188 281.634 415.767 282.663 408.646 275.888C401.526 269.114 393.013 261.704 396.572 257.81C400.131 253.916 408.788 256.251 415.909 263.025C423.029 269.8 429.306 273.846 425.747 277.74Z" fill="#FFE3E3"/>
<path d="M437.014 273.48C433.455 277.374 426.61 277.998 418.458 270.243C410.307 262.488 400.611 253.952 404.17 250.058C407.729 246.164 417.222 249.294 425.373 257.049C433.524 264.804 440.573 269.586 437.014 273.48Z" fill="#FFE3E3"/>
<path d="M414.446 251.054C414.446 261.703 408.295 272.143 393.356 272.143C378.416 272.143 361.262 273.151 361.262 262.502C361.262 251.854 373.373 243.221 388.312 243.221C403.252 243.221 414.446 240.406 414.446 251.054Z" fill="#FFE3E3"/>
<path d="M135.048 92.4544C135.048 140.394 170.217 179.257 218.382 179.257C266.547 179.257 303.17 140.394 303.17 92.4544C303.17 44.515 266.063 20.9941 217.898 20.9941C169.732 20.9941 135.048 44.515 135.048 92.4544Z" fill="#FFE3E3"/>
<path d="M166.253 171.733C173.642 180.435 217.646 192.402 240.542 195.944C263.007 189.22 278.493 192.63 292.882 174.156C292.882 148.728 255.745 137.807 219.369 137.807C182.994 137.807 166.253 146.304 166.253 171.733Z" fill="#FFE3E3"/>
<path d="M148.525 135.223L166.253 172.259L292.946 174.45L297.774 135.223H148.525Z" fill="#FFE3E3"/>
<ellipse cx="298.81" cy="140.902" rx="9.69007" ry="17.3604" fill="#FFE3E3"/>
<path d="M303.078 81.1164C303.615 83.528 295.868 71.5038 284.291 73.2917C272.715 75.0796 263.409 83.528 262.872 81.1164C262.336 78.7047 270.772 66.3463 282.349 64.5584C293.925 62.7705 302.542 78.7048 303.078 81.1164Z" fill="#393939"/>
<ellipse rx="9.69007" ry="17.3604" transform="matrix(-1 0 0 1 185.229 118.132)" fill="#FFE3E3"/>
<path d="M259.863 109.384L275.808 160.254H243.919L259.863 109.384Z" fill="#E9D2D2"/>
<path d="M259.863 109.384V160.254H243.919L259.863 109.384Z" fill="#FFD7D7"/>
<path d="M292.463 110C292.463 123.649 287.923 134.714 282.323 134.714C276.723 134.714 272.183 123.649 272.183 110C272.183 96.3513 276.723 85.2866 282.323 85.2866C287.923 85.2866 292.463 96.3513 292.463 110Z" fill="#393939"/>
<path d="M244.728 110.048C244.728 123.872 239.739 135.079 233.585 135.079C227.43 135.079 222.441 123.872 222.441 110.048C222.441 96.2233 227.43 85.0164 233.585 85.0164C239.739 85.0164 244.728 96.2233 244.728 110.048Z" fill="#393939"/>
<path d="M211.547 71.5886C211.011 74.0003 221.78 78.5341 233.356 80.322C244.933 82.1099 254.239 90.5583 254.775 88.1466C255.312 85.735 246.875 73.3765 235.299 71.5887C223.722 69.8008 212.084 69.177 211.547 71.5886Z" fill="#393939"/>
<path d="M180.425 98.8323C180.425 116.097 184.024 157.186 158.99 157.186C140.047 166.264 115.692 103.852 108.848 63.4334C108.848 46.1685 133.956 45.6484 158.99 45.6484C184.024 45.6484 180.425 81.5674 180.425 98.8323Z" fill="#393939"/>
<path d="M294.476 98.6492C294.476 114.684 293.941 134.846 297.66 134.846C301.379 134.846 305.108 81.8074 305.108 65.7729C305.108 49.7384 301.379 49.2554 297.66 49.2554C293.941 49.2554 294.476 82.6147 294.476 98.6492Z" fill="#393939"/>
<path d="M176.715 0C180.878 7.99887 182.792 12.2639 190.281 16.9567C197.709 15.3788 203.355 13.7138 206.754 8.07461C212.534 1.80023 215.842 0.756104 221.774 0C222.364 10.0021 222.701 9.96503 232.433 16.9567C238.744 4.52332 251.532 6.61231 271.193 2.42238C263.092 22.5477 264.73 14.6863 264.894 20.994L302.201 4.84477C310.922 29.8761 296.208 45.6488 300.263 62.1745C286.993 52.204 216.174 61.1522 135.532 58.1372C138.444 30.5474 150.583 18.9762 176.715 0Z" fill="#393939"/>
<ellipse cx="156.123" cy="141.683" rx="11.8187" ry="22.8242" fill="#FFE3E3"/>
<path d="M219.437 164.507H278.547C278.547 181.06 277.061 184.904 253.353 186.712C234.854 185.242 225.593 181.543 219.437 164.507Z" fill="#7D5C5C"/>
<ellipse cx="253.837" cy="181.06" rx="20.8336" ry="5.2485" fill="#DF4444"/>
<path d="M219.437 164.507H278.547C278.471 167.587 279.019 169.343 278.062 172.178L222.829 171.774C221.287 169.439 220.581 167.763 219.437 164.507Z" fill="white"/>
<path d="M453.893 70.5267C457.119 74.7121 455.95 75.6166 447.024 82.7775C438.098 89.9384 424.195 106.089 420.969 101.903C417.743 97.718 429.584 83.0681 438.51 75.9072C447.437 68.7463 450.668 66.3413 453.893 70.5267Z" fill="#FFE3E3"/>
<path d="M387.896 101.347C393.351 98.445 392.858 97.5465 389.247 90.4806C385.636 83.4147 383.073 68.3847 377.619 71.2863C372.164 74.188 373.798 87.7095 377.409 94.7754C381.019 101.841 382.441 104.248 387.896 101.347Z" fill="#FFE3E3"/>
<path d="M417.127 71.1657C427.718 81.9724 433.751 97.0042 423.187 107.781C412.622 118.559 401.494 131.956 390.903 121.15C380.313 110.343 380.291 92.846 390.856 82.0688C401.421 71.2917 406.536 60.3591 417.127 71.1657Z" fill="#FFE3E3"/>
<path d="M423.984 39.8108C428.481 42.5113 427.665 43.8762 421.51 54.5465C415.355 65.2168 407.445 86.6733 402.947 83.9728C398.45 81.2723 404.886 62.1321 411.041 51.4618C417.196 40.7915 419.486 37.1103 423.984 39.8108Z" fill="#FFE3E3"/>
<path d="M419.645 71.3861C422.535 75.4783 421.696 76.0644 415.314 80.756C408.931 85.4477 399.421 97.025 396.531 92.9328C393.641 88.8405 401.664 78.2155 408.046 73.5239C414.428 68.8323 416.755 67.2938 419.645 71.3861Z" fill="#FFEBEB"/>
<path d="M426.52 79.3106C429.529 83.5713 428.738 84.1212 422.728 88.5397C416.717 92.9582 407.972 104.161 404.963 99.9008C401.954 95.6402 409.291 85.3246 415.302 80.9061C421.313 76.4877 423.511 75.05 426.52 79.3106Z" fill="#FFECEC"/>
<path d="M312.555 745.196C309.977 757.261 256.489 721.889 243.079 719.003C229.669 716.116 227.891 706.379 230.47 694.315C233.048 682.25 239.005 672.425 252.415 675.311C282.108 681.734 320.764 728.72 312.555 745.196Z" fill="#FFE3E3"/>
<path d="M245.322 672.03C245.322 734.34 299.24 868.424 245.322 868.424C216.647 965.578 75.4047 831.847 50.0686 672.03C50.0686 609.72 93.7776 559.208 147.695 559.208C201.613 559.208 245.322 609.72 245.322 672.03Z" fill="#88CD5D"/>
</g>
<ellipse cx="129.925" cy="910.403" rx="159.487" ry="101.778" fill="#F9C662"/>
<ellipse cx="258.983" cy="864.236" rx="135.354" ry="101.778" fill="#FFD178"/>
<ellipse cx="232.402" cy="919.497" rx="135.354" ry="101.778" fill="#F4CA79"/>
<ellipse cx="388.391" cy="899.211" rx="135.354" ry="101.778" fill="#FFD88C"/>
<defs>
<filter id="filter0_d" x="-119" y="0" width="857" height="938.645" filterUnits="userSpaceOnUse" color-interpolation-filters="sRGB">
<feFlood flood-opacity="0" result="BackgroundImageFix"/>
<feColorMatrix in="SourceAlpha" type="matrix" values="0 0 0 0 0 0 0 0 0 0 0 0 0 0 0 0 0 0 127 0"/>
<feOffset dx="4" dy="10"/>
<feGaussianBlur stdDeviation="3"/>
<feColorMatrix type="matrix" values="0 0 0 0 0 0 0 0 0 0 0 0 0 0 0 0 0 0 0.25 0"/>
<feBlend mode="normal" in2="BackgroundImageFix" result="effect1_dropShadow"/>
<feBlend mode="normal" in="SourceGraphic" in2="effect1_dropShadow" result="shape"/>
</filter>
</defs>
</svg>
